<svg width="128" height="128" viewBox="0 0 128 128" fill="none" xmlns="http://www.w3.org/2000/svg">
<path d="M0 7.20703C0 3.2267 3.2267 0 7.20703 0H120.793C124.773 0 128 3.2267 128 7.20703V120.793C128 124.773 124.773 128 120.793 128H7.20703C3.2267 128 0 124.773 0 120.793V7.20703Z" fill="white"/>
<path d="M55.299 90.6099C54.9958 90.7325 54.6505 90.586 54.5279 90.2828V90.2828C52.2334 84.4314 50.969 79.5478 50.7346 75.632C50.5003 71.7162 51.0192 68.2589 52.2914 65.2602C53.5635 62.2615 55.3306 59.2579 57.5925 56.2494C58.9484 54.4236 60.0411 52.4734 60.8706 50.399C61.6878 48.294 62.1074 46.0836 62.1294 43.7678C62.182 41.4395 61.7211 39.0704 60.7468 36.6604C59.5383 33.6708 57.7883 31.3615 55.4971 29.7323C53.2059 28.1032 50.6453 27.1685 47.8153 26.9284C44.9854 26.6883 42.1366 27.1479 39.2691 28.3071C36.7675 29.3184 34.5672 30.8113 32.6681 32.7858C30.7689 34.7602 29.4915 37.1754 28.836 40.0314C28.5418 41.3131 28.4356 42.6797 28.5174 44.1311C28.7031 47.4258 27.2938 50.8232 24.2344 52.06V52.06C20.9149 53.402 17.0549 51.698 16.5622 48.1516C16.1508 45.1896 16.224 42.3326 16.7818 39.5807C17.7606 34.8905 19.8687 30.7553 23.1062 27.175C26.3743 23.5823 30.4793 20.7871 35.4213 18.7892C40.7904 16.6187 45.8895 15.7995 50.7185 16.3317C55.5781 16.8515 59.8432 18.5345 63.5137 21.3807C67.2147 24.2145 70.0272 28.0109 71.9511 32.7698C73.3076 36.1255 74.0161 39.3705 74.0765 42.5049C74.1674 45.6269 73.6836 48.6441 72.625 51.5565C71.5969 54.4566 70.0735 57.2729 68.0549 60.0055C66.0487 62.7686 64.6133 65.4074 63.7488 67.9219C62.8719 70.4059 62.5792 73.0619 62.8706 75.8899C63.1621 78.7179 64.0419 82.0356 65.5102 85.843V85.843C65.6328 86.1463 65.4863 86.4915 65.183 86.6141L55.299 90.6099ZM71.5585 115.553C69.301 116.466 67.037 116.441 64.7666 115.478C62.4961 114.514 60.9046 112.904 59.992 110.647C59.0794 108.389 59.1047 106.125 60.0679 103.855C61.0311 101.584 62.6414 99.9928 64.8989 99.0802C67.1563 98.1675 69.4203 98.1928 71.6907 99.156C73.9612 100.119 75.5527 101.73 76.4653 103.987C77.0696 105.482 77.2433 107.009 76.9862 108.568C76.7597 110.115 76.1753 111.522 75.2328 112.79C74.3086 114.016 73.0838 114.937 71.5585 115.553Z" fill="#333333"/>
<path d="M19.5315 94.4087C16.1423 92.8572 14.6526 88.852 16.2042 85.4628V85.4628C17.7557 82.0736 21.7609 80.5839 25.1501 82.1355L50.1367 93.5741C53.5259 95.1256 55.0156 99.1309 53.4641 102.52V102.52C51.9125 105.909 47.9073 107.399 44.5181 105.847L19.5315 94.4087Z" fill="#52D17B"/>
<path d="M85.0363 90.7274C83.5179 94.1328 79.5263 95.6626 76.1209 94.1441V94.1441C72.7155 92.6257 71.1858 88.6342 72.7042 85.2288L99.4351 25.2783C100.954 21.8729 104.945 20.3432 108.35 21.8616V21.8616C111.756 23.3801 113.286 27.3716 111.767 30.777L85.0363 90.7274Z" fill="#52D17B"/>
</svg>
