<?xml version="1.0" encoding="iso-8859-1"?>
<!-- Generator: Adobe Illustrator 19.0.0, SVG Export Plug-In . SVG Version: 6.00 Build 0)  -->
<svg version="1.1" id="Layer_1" xmlns="http://www.w3.org/2000/svg" xmlns:xlink="http://www.w3.org/1999/xlink" x="0px" y="0px"
	 viewBox="0 0 511.999 511.999" style="enable-background:new 0 0 511.999 511.999;" xml:space="preserve">
<path style="fill:#E6EAEA;" d="M480.951,77.402l-222.33-76.96c-1.7-0.589-3.546-0.589-5.244,0l-222.33,76.96
	c-3.708,1.283-5.943,5.061-5.279,8.93l51.307,299.29c0.361,2.109,1.551,3.985,3.304,5.213l171.023,119.716
	c1.38,0.965,2.989,1.448,4.597,1.448c1.609,0,3.217-0.483,4.597-1.448L431.62,390.835c1.754-1.227,2.943-3.104,3.305-5.213
	l51.307-299.29C486.894,82.463,484.66,78.685,480.951,77.402z"/>
<path style="fill:#4ACFD9;" d="M444.748,98.805L258.621,34.376c-1.697-0.589-3.546-0.589-5.244,0L67.25,98.805
	c-3.708,1.283-5.942,5.062-5.278,8.93l44.449,259.288c0.361,2.109,1.551,3.985,3.304,5.213l141.676,99.173
	c1.38,0.965,2.989,1.448,4.597,1.448c1.609,0,3.217-0.483,4.597-1.448l141.678-99.173c1.754-1.227,2.943-3.104,3.305-5.213
	l44.449-259.288C450.69,103.867,448.457,100.087,444.748,98.805z"/>
<path style="fill:#FFD1A9;" d="M270.481,223.59c23.349-6.376,40.567-27.759,40.567-53.102c0-30.354-24.695-55.048-55.048-55.048
	s-55.048,24.694-55.048,55.048c0,25.342,17.218,46.726,40.567,53.102c-39.979,6.896-70.496,41.798-70.496,83.717v42.756
	c0,4.428,3.589,8.017,8.017,8.017H332.96c4.428,0,8.017-3.588,8.017-8.017v-42.756C340.976,265.388,310.459,230.487,270.481,223.59z
	"/>
<g>
	<path style="fill:#FFFFFF;" d="M373.69,323.876c-0.45,0-0.906-0.037-1.364-0.115c-4.363-0.748-7.294-4.892-6.547-9.257
		l12.46-72.685c0.748-4.363,4.897-7.293,9.257-6.547c4.363,0.748,7.294,4.892,6.547,9.257l-12.46,72.685
		C380.912,321.118,377.523,323.876,373.69,323.876z"/>
	<path style="fill:#FFFFFF;" d="M397.877,182.782c-0.45,0-0.906-0.037-1.364-0.115c-4.363-0.748-7.294-4.892-6.547-9.257
		l6.905-40.278l-45.152-15.632c-4.184-1.447-6.402-6.014-4.953-10.197c1.447-4.183,6.014-6.399,10.197-4.953l51.582,17.856
		c3.709,1.283,5.943,5.062,5.279,8.93l-8.054,46.983C405.099,180.024,401.71,182.782,397.877,182.782z"/>
	<path style="fill:#FFFFFF;" d="M332.956,110.542c-0.869,0-1.754-0.143-2.622-0.444l-34.208-11.841
		c-4.184-1.447-6.402-6.014-4.953-10.197c1.447-4.184,6.011-6.402,10.197-4.953l34.208,11.841c4.184,1.447,6.402,6.014,4.953,10.197
		C339.385,108.462,336.279,110.542,332.956,110.542z"/>
</g>
<path style="fill:#9BAAAB;" d="M253.377,0.442l-222.33,76.96c-3.708,1.283-5.943,5.061-5.279,8.93l51.307,299.29
	c0.361,2.109,1.551,3.985,3.304,5.213l171.023,119.716c1.38,0.965,2.989,1.448,4.597,1.448V0C255.113,0,254.226,0.148,253.377,0.442
	z"/>
<path style="fill:#0295AA;" d="M253.377,34.375L67.25,98.805c-3.708,1.283-5.942,5.062-5.278,8.93l44.449,259.288
	c0.361,2.109,1.551,3.985,3.304,5.213l141.676,99.173c1.38,0.965,2.989,1.448,4.597,1.448V33.933
	C255.113,33.933,254.226,34.081,253.377,34.375z"/>
<path style="fill:#FD6A33;" d="M200.951,170.489c0,25.342,17.218,46.726,40.567,53.102c-39.979,6.896-70.496,41.798-70.496,83.717
	v42.756c0,4.428,3.589,8.017,8.017,8.017h76.96V115.441C225.646,115.441,200.951,140.134,200.951,170.489z"/>
<g>
</g>
<g>
</g>
<g>
</g>
<g>
</g>
<g>
</g>
<g>
</g>
<g>
</g>
<g>
</g>
<g>
</g>
<g>
</g>
<g>
</g>
<g>
</g>
<g>
</g>
<g>
</g>
<g>
</g>
</svg>
