<svg width="1411" height="512" viewBox="0 0 1411 512" fill="none" xmlns="http://www.w3.org/2000/svg">
<path d="M643.43 135.514C642.977 128.269 641.241 121.401 638.223 114.911C635.204 108.421 630.827 103.138 625.091 99.0625C619.355 94.9872 612.035 92.9495 603.13 92.9495C593.772 92.9495 586.602 95.591 581.621 100.874C576.64 106.157 574.15 112.345 574.15 119.439C574.15 125.778 575.961 131.137 579.583 135.514C583.206 139.74 587.885 143.514 593.621 146.834C599.507 150.004 605.696 153.098 612.186 156.117C617.921 158.683 623.657 161.475 629.393 164.494C635.128 167.362 640.336 170.682 645.015 174.456C649.694 178.229 653.392 182.757 656.109 188.04C658.976 193.172 660.41 199.36 660.41 206.605C660.41 214.907 658.297 222.303 654.071 228.793C649.996 235.283 644.034 240.415 636.185 244.189C628.336 247.811 618.752 249.622 607.431 249.622C600.639 249.622 593.621 248.641 586.376 246.679C579.131 244.717 572.716 241.849 567.131 238.076L568.263 247.811H556.49L555.132 199.587H563.961C564.716 212.869 569.32 222.982 577.772 229.925C586.225 236.717 596.413 240.113 608.337 240.113C614.224 240.113 619.657 239.057 624.638 236.944C629.619 234.68 633.543 231.435 636.411 227.208C639.43 222.982 640.939 217.85 640.939 211.813C640.939 205.021 639.128 199.36 635.506 194.832C631.883 190.304 627.204 186.38 621.468 183.059C615.733 179.739 609.62 176.569 603.13 173.55C597.394 170.984 591.734 168.267 586.149 165.399C580.564 162.532 575.433 159.287 570.754 155.664C566.225 151.891 562.527 147.438 559.66 142.306C556.943 137.174 555.584 130.986 555.584 123.741C555.584 119.816 556.264 115.59 557.622 111.062C558.98 106.534 561.32 102.232 564.641 98.1569C568.112 93.9306 572.791 90.5346 578.678 87.9686C584.715 85.2518 592.338 83.8933 601.545 83.8933C607.28 83.8933 613.695 84.7235 620.789 86.3838C628.034 87.8931 634.751 90.9119 640.939 95.44L640.034 85.7046H651.58V135.514H643.43ZM736.569 249.622C726.004 249.622 716.419 247.207 707.816 242.378C699.212 237.397 692.345 230.604 687.213 222.001C682.232 213.247 679.742 203.285 679.742 192.115C679.742 180.191 682.232 169.475 687.213 159.966C692.194 150.457 698.986 142.985 707.589 137.552C716.193 131.967 725.853 129.175 736.569 129.175C747.135 129.175 756.72 131.74 765.323 136.872C773.926 141.853 780.794 148.645 785.926 157.249C791.058 165.852 793.624 175.663 793.624 186.682C793.624 198.304 791.058 208.945 785.926 218.605C780.945 228.114 774.153 235.661 765.549 241.245C756.946 246.83 747.286 249.622 736.569 249.622ZM738.381 240.566C746.38 240.566 752.72 238.302 757.399 233.774C762.078 229.246 765.398 223.359 767.361 216.114C769.474 208.869 770.53 201.247 770.53 193.247C770.53 186.455 769.851 179.814 768.493 173.324C767.285 166.682 765.323 160.72 762.606 155.438C759.889 150.004 756.342 145.702 751.965 142.532C747.739 139.363 742.607 137.778 736.569 137.778C728.721 137.778 722.306 140.042 717.325 144.57C712.344 149.098 708.646 154.985 706.231 162.23C703.967 169.475 702.835 177.248 702.835 185.55C702.835 194.908 704.118 203.813 706.684 212.266C709.25 220.567 713.174 227.359 718.457 232.642C723.74 237.925 730.381 240.566 738.381 240.566ZM860.631 249.622C852.48 249.622 845.613 248.113 840.028 245.094C834.594 242.076 830.444 236.944 827.576 229.699C824.859 222.454 823.5 212.643 823.5 200.266V159.966C823.5 157.551 823.5 155.136 823.5 152.721C823.651 150.306 823.953 147.815 824.406 145.249C821.84 145.4 819.199 145.551 816.482 145.702C813.916 145.702 811.35 145.778 808.784 145.929V136.646H815.803C822.293 136.646 826.972 136.042 829.84 134.835C832.859 133.476 835.198 132.042 836.858 130.533H843.424V199.587C843.424 212.567 845.235 222.303 848.858 228.793C852.631 235.133 858.971 238.227 867.876 238.076C873.612 237.925 879.045 236.189 884.177 232.868C889.46 229.397 893.686 225.322 896.856 220.643V162.456C896.856 158.834 896.931 155.739 897.082 153.174C897.233 150.457 897.535 147.815 897.988 145.249C895.271 145.4 892.554 145.551 889.837 145.702C887.121 145.702 884.404 145.778 881.687 145.929V136.646H888.705C895.196 136.646 899.875 136.042 902.743 134.835C905.761 133.476 908.101 132.042 909.761 130.533H916.327L916.101 216.114C916.101 218.529 916.025 221.925 915.874 226.303C915.723 230.68 915.497 234.378 915.195 237.397C917.912 237.246 920.629 237.095 923.346 236.944C926.062 236.793 928.779 236.642 931.496 236.491V246H899.12C898.667 243.434 898.29 241.019 897.988 238.755C897.837 236.491 897.686 234.378 897.535 232.416C892.856 237.095 887.196 241.17 880.555 244.642C873.914 247.962 867.272 249.622 860.631 249.622ZM947.951 239.208C952.63 239.208 955.875 238.076 957.687 235.812C959.498 233.397 960.554 230.152 960.856 226.076C961.158 221.85 961.309 217.02 961.309 211.586V159.966C961.309 157.551 961.309 155.136 961.309 152.721C961.46 150.306 961.762 147.815 962.215 145.249C959.498 145.4 956.781 145.551 954.064 145.702C951.498 145.702 948.857 145.778 946.14 145.929V136.646H953.159C959.649 136.646 964.102 136.042 966.517 134.835C969.082 133.476 971.196 132.042 972.856 130.533H979.422C979.724 132.948 979.95 135.967 980.101 139.589C980.252 143.061 980.403 147.513 980.554 152.947C982.818 149.174 985.912 145.476 989.836 141.853C993.761 138.231 998.138 135.212 1002.97 132.797C1007.95 130.382 1013.16 129.175 1018.59 129.175C1022.82 129.175 1026.51 130.307 1029.68 132.571C1032.85 134.835 1034.44 138.457 1034.44 143.438C1034.44 144.646 1034.06 146.155 1033.31 147.966C1032.55 149.627 1031.34 151.136 1029.68 152.494C1028.02 153.702 1025.83 154.306 1023.12 154.306C1019.8 154.155 1017.16 152.872 1015.19 150.457C1013.23 147.891 1012.48 144.947 1012.93 141.627C1009.16 141.476 1005.23 142.457 1001.16 144.57C997.232 146.683 993.534 149.627 990.063 153.4C986.591 157.022 983.497 161.324 980.78 166.305L981.006 222.001C981.006 225.02 980.931 227.737 980.78 230.152C980.78 232.416 980.554 234.831 980.101 237.397C982.516 237.246 984.855 237.17 987.119 237.17C989.534 237.019 991.949 236.868 994.364 236.717V246H947.951V239.208ZM1099.59 249.622C1089.48 249.622 1080.12 247.358 1071.52 242.83C1063.07 238.151 1056.27 231.51 1051.14 222.907C1046.16 214.152 1043.67 203.662 1043.67 191.436C1043.67 183.587 1045.11 175.965 1047.97 168.569C1050.84 161.173 1054.84 154.532 1059.97 148.645C1065.26 142.608 1071.52 137.853 1078.76 134.382C1086.01 130.91 1094.01 129.175 1102.76 129.175C1111.22 129.175 1118.54 130.457 1124.72 133.023C1131.06 135.589 1135.97 138.985 1139.44 143.212C1142.91 147.438 1144.65 152.042 1144.65 157.022C1144.65 160.343 1143.74 163.211 1141.93 165.626C1140.12 167.89 1137.48 169.022 1134.01 169.022C1130.23 169.173 1127.52 168.041 1125.86 165.626C1124.35 163.06 1123.59 160.796 1123.59 158.834C1123.59 157.324 1123.82 155.815 1124.27 154.306C1124.72 152.645 1125.63 151.136 1126.99 149.777C1125.78 146.155 1123.67 143.514 1120.65 141.853C1117.63 140.042 1114.46 138.91 1111.14 138.457C1107.97 137.853 1105.33 137.552 1103.22 137.552C1092.95 137.552 1084.27 141.702 1077.18 150.004C1070.24 158.154 1066.76 170.079 1066.76 185.776C1066.76 195.889 1068.35 204.87 1071.52 212.718C1074.84 220.567 1079.44 226.755 1085.33 231.284C1091.22 235.661 1098.01 237.849 1105.71 237.849C1112.8 237.849 1119.59 235.963 1126.08 232.189C1132.57 228.416 1137.63 223.812 1141.25 218.378L1147.14 222.907C1143.21 229.246 1138.46 234.378 1132.88 238.302C1127.44 242.227 1121.78 245.094 1115.89 246.906C1110.16 248.717 1104.73 249.622 1099.59 249.622ZM1218.53 249.622C1208.12 249.622 1198.69 247.207 1190.23 242.378C1181.93 237.397 1175.37 230.453 1170.54 221.548C1165.71 212.492 1163.29 201.851 1163.29 189.625C1163.29 179.059 1165.63 169.173 1170.31 159.966C1175.14 150.759 1181.86 143.363 1190.46 137.778C1199.06 132.042 1209.03 129.175 1220.35 129.175C1226.69 129.175 1232.57 130.231 1238.01 132.344C1243.59 134.306 1248.5 137.401 1252.72 141.627C1256.95 145.702 1260.27 150.909 1262.68 157.249C1265.1 163.437 1266.31 170.758 1266.31 179.21L1186.61 180.569C1186.61 192.04 1187.82 202.153 1190.23 210.907C1192.8 219.511 1196.88 226.227 1202.46 231.057C1208.04 235.736 1215.21 238.076 1223.97 238.076C1228.65 238.076 1233.4 237.246 1238.23 235.585C1243.21 233.925 1247.82 231.661 1252.04 228.793C1256.27 225.925 1259.67 222.756 1262.23 219.284L1267.66 223.812C1263.59 230.152 1258.68 235.208 1252.95 238.981C1247.21 242.755 1241.33 245.472 1235.29 247.132C1229.25 248.792 1223.67 249.622 1218.53 249.622ZM1187.29 171.06H1245.02C1245.02 165.626 1244.19 160.419 1242.53 155.438C1241.02 150.306 1238.46 146.155 1234.84 142.985C1231.21 139.665 1226.46 138.004 1220.57 138.004C1211.82 138.004 1204.5 140.646 1198.61 145.929C1192.88 151.06 1189.1 159.437 1187.29 171.06ZM1333.8 249.622C1324.59 249.622 1316.29 247.358 1308.9 242.83C1301.5 238.151 1295.61 231.51 1291.24 222.907C1287.01 214.303 1284.9 204.19 1284.9 192.568C1284.9 180.191 1287.39 169.248 1292.37 159.739C1297.35 150.23 1304.22 142.759 1312.97 137.325C1321.88 131.891 1331.91 129.175 1343.08 129.175C1348.06 129.175 1352.97 129.854 1357.8 131.212C1362.78 132.42 1366.7 133.854 1369.57 135.514V104.496C1369.57 102.081 1369.57 99.8172 1369.57 97.7041C1369.72 95.44 1369.95 92.7986 1370.25 89.7799C1367.53 89.9308 1364.82 90.0817 1362.1 90.2327C1359.53 90.3836 1356.89 90.5346 1354.18 90.6855V81.1764C1360.82 81.1764 1365.95 80.8746 1369.57 80.2708C1373.19 79.6671 1375.91 78.9124 1377.72 78.0068C1379.69 77.1011 1381.19 76.12 1382.25 75.0635H1388.82V222.001C1388.82 224.416 1388.74 226.831 1388.59 229.246C1388.44 231.661 1388.21 234.378 1387.91 237.397C1390.63 237.246 1393.27 237.095 1395.84 236.944C1398.55 236.793 1401.27 236.642 1403.99 236.491V246H1371.61C1371.16 243.736 1370.78 241.698 1370.48 239.887C1370.33 237.925 1370.18 236.038 1370.03 234.227C1365.8 238.906 1360.59 242.679 1354.4 245.547C1348.21 248.264 1341.35 249.622 1333.8 249.622ZM1341.95 238.529C1346.93 238.529 1351.91 237.095 1356.89 234.227C1362.03 231.359 1366.25 227.812 1369.57 223.586C1369.42 221.775 1369.35 219.888 1369.35 217.926C1369.35 215.813 1369.35 213.548 1369.35 211.133L1369.57 145.929C1365.95 143.212 1361.95 141.249 1357.57 140.042C1353.35 138.684 1348.97 138.004 1344.44 138.004C1336.89 138.004 1330.33 140.193 1324.74 144.57C1319.16 148.947 1314.93 155.06 1312.07 162.909C1309.2 170.758 1307.91 179.965 1308.22 190.531C1308.52 199.738 1309.95 207.964 1312.52 215.209C1315.23 222.454 1319.01 228.189 1323.84 232.416C1328.82 236.491 1334.86 238.529 1341.95 238.529ZM605.394 283.987C599.809 284.138 595.885 285.421 593.621 287.836C591.507 290.251 590.3 293.496 589.998 297.572C589.847 301.647 589.772 306.401 589.772 311.835V408.058C589.772 412.133 589.696 415.68 589.545 418.699C589.545 421.567 589.394 423.982 589.092 425.944C591.809 425.793 594.526 425.642 597.243 425.491C599.96 425.34 602.677 425.189 605.394 425.038V435H554.452V427.529C560.188 427.227 564.112 425.944 566.225 423.68C568.339 421.265 569.471 418.02 569.622 413.944C569.923 409.718 570.074 404.963 570.074 399.681V301.873C570.074 298.855 570.15 295.987 570.301 293.27C570.452 290.402 570.603 287.836 570.754 285.572C568.037 285.723 565.32 285.874 562.603 286.025C559.886 286.176 557.169 286.327 554.452 286.478V276.516H605.394V283.987ZM626.03 435V428.208C630.709 428.208 633.954 427.076 635.766 424.812C637.577 422.397 638.633 419.152 638.935 415.076C639.237 410.85 639.388 406.02 639.388 400.586L639.615 348.966C639.615 346.551 639.615 344.136 639.615 341.721C639.766 339.306 640.067 336.815 640.52 334.249C637.803 334.4 635.086 334.551 632.37 334.702C629.804 334.853 627.162 335.004 624.445 335.155V325.646C631.087 325.646 636.068 325.344 639.388 324.74C642.86 324.137 645.426 323.382 647.086 322.476C648.746 321.571 650.105 320.59 651.161 319.533H657.727C657.878 320.59 657.953 321.797 657.953 323.155C658.104 324.514 658.255 326.023 658.406 327.684C658.557 329.344 658.633 331.231 658.633 333.344C661.953 330.476 665.576 327.91 669.5 325.646C673.575 323.382 677.802 321.571 682.179 320.212C686.707 318.854 691.16 318.175 695.537 318.175C708.668 318.175 718.253 322.325 724.29 330.627C730.328 338.777 733.347 351.532 733.347 368.889V411.001C733.347 414.02 733.271 416.737 733.12 419.152C733.12 421.416 732.894 423.831 732.441 426.397C734.856 426.246 737.196 426.17 739.46 426.17C741.875 426.019 744.29 425.868 746.705 425.717V435H700.518V428.208C705.197 428.208 708.442 427.076 710.253 424.812C712.064 422.397 713.121 419.152 713.423 415.076C713.725 410.85 713.876 406.02 713.876 400.586V368.889C713.725 355.909 711.536 346.098 707.31 339.457C703.235 332.815 696.744 329.57 687.839 329.721C682.405 329.872 677.047 331.306 671.764 334.023C666.632 336.74 662.331 340.211 658.859 344.438C659.01 345.645 659.085 347.004 659.085 348.513C659.085 350.022 659.085 351.607 659.085 353.267L658.859 411.001C658.859 414.02 658.784 416.737 658.633 419.152C658.633 421.416 658.406 423.831 657.953 426.397C660.368 426.246 662.708 426.17 664.972 426.17C667.387 426.019 669.802 425.868 672.217 425.717V435H626.03ZM777.818 317.042C777.818 300.288 780.836 287.081 786.874 277.421C793.062 267.761 803.628 262.931 818.571 262.931C821.891 262.931 825.363 263.535 828.985 264.743C832.759 265.799 836.004 267.611 838.721 270.176C841.438 272.591 842.796 275.761 842.796 279.685C842.796 282.553 841.966 284.968 840.306 286.93C838.796 288.893 836.532 289.874 833.514 289.874C829.891 290.025 827.325 288.968 825.816 286.704C824.457 284.289 823.778 282.251 823.778 280.591C823.778 279.685 823.854 278.78 824.005 277.874C824.155 276.969 824.457 275.988 824.91 274.931C823.854 273.573 822.344 272.591 820.382 271.988C818.571 271.384 816.835 271.082 815.175 271.082C810.496 271.082 806.873 272.441 804.307 275.157C801.741 277.874 799.93 281.27 798.873 285.346C797.817 289.421 797.289 293.647 797.289 298.024V321.797H827.853V330.627L797.289 331.306L797.515 411.001C797.515 414.02 797.44 416.737 797.289 419.152C797.289 421.416 797.062 423.831 796.609 426.397C799.024 426.246 801.364 426.17 803.628 426.17C806.043 426.019 808.458 425.868 810.873 425.717V435H764.686V428.208C769.365 428.208 772.61 427.076 774.422 424.812C776.233 422.397 777.289 419.152 777.591 415.076C777.893 410.85 778.044 406.02 778.044 400.586L777.818 331.532L759.252 331.985V321.797H777.818V317.042ZM895.098 438.622C884.532 438.622 874.948 436.207 866.344 431.378C857.741 426.397 850.873 419.604 845.741 411.001C840.76 402.247 838.27 392.285 838.27 381.115C838.27 369.191 840.76 358.475 845.741 348.966C850.722 339.457 857.514 331.985 866.118 326.552C874.721 320.967 884.381 318.175 895.098 318.175C905.663 318.175 915.248 320.74 923.851 325.872C932.455 330.853 939.322 337.645 944.454 346.249C949.586 354.852 952.152 364.663 952.152 375.682C952.152 387.304 949.586 397.945 944.454 407.605C939.473 417.114 932.681 424.661 924.078 430.245C915.474 435.83 905.814 438.622 895.098 438.622ZM896.909 429.566C904.909 429.566 911.248 427.302 915.927 422.774C920.606 418.246 923.927 412.359 925.889 405.114C928.002 397.869 929.059 390.247 929.059 382.247C929.059 375.455 928.379 368.814 927.021 362.324C925.814 355.682 923.851 349.72 921.134 344.438C918.418 339.004 914.871 334.702 910.493 331.532C906.267 328.363 901.135 326.778 895.098 326.778C887.249 326.778 880.834 329.042 875.853 333.57C870.872 338.098 867.174 343.985 864.759 351.23C862.495 358.475 861.363 366.248 861.363 374.55C861.363 383.908 862.646 392.813 865.212 401.266C867.778 409.567 871.703 416.359 876.985 421.642C882.268 426.925 888.909 429.566 896.909 429.566Z" fill="#333333"/>
<path d="M0 0H512V512H0V0Z" fill="white"/>
<path d="M219 363.327L218.112 361.131C208.934 337.726 203.876 318.191 202.939 302.528C202.001 286.865 204.077 273.036 209.165 261.041C214.254 249.046 221.322 237.031 230.37 224.998C235.794 217.694 240.164 209.894 243.482 201.596C246.751 193.176 248.43 184.335 248.518 175.071C248.728 165.758 246.884 156.282 242.987 146.642C238.153 134.683 231.153 125.446 221.988 118.929C212.824 112.413 202.581 108.674 191.261 107.714C179.942 106.753 168.547 108.591 157.076 113.228C147.07 117.274 138.269 123.245 130.672 131.143C123.076 139.041 117.966 148.702 115.344 160.125C112.722 171.549 113.833 184.658 118.678 199.451L72.5527 218.098C65.1427 196.959 63.3342 177.034 67.1272 158.323C71.0423 139.562 79.4748 123.021 92.4249 108.7C105.497 94.3293 121.917 83.1483 141.685 75.1568C163.161 66.4746 183.558 63.1979 202.874 65.3267C222.313 67.4062 239.373 74.1382 254.055 85.5227C268.859 96.8579 280.109 112.043 287.804 131.079C293.231 144.502 296.064 157.482 296.306 170.02C296.67 182.508 294.734 194.576 290.5 206.226C286.387 217.826 280.294 229.092 272.22 240.022C264.195 251.074 258.453 261.63 254.995 271.688C251.488 281.624 250.317 292.248 251.483 303.56C252.648 314.872 256.168 328.142 262.041 343.372L262.929 345.569L219 363.327ZM286.234 462.214C277.204 465.864 268.148 465.763 259.066 461.91C249.985 458.058 243.618 451.616 239.968 442.587C236.318 433.557 236.419 424.501 240.271 415.419C244.124 406.337 250.566 399.971 259.595 396.321C268.625 392.67 277.681 392.771 286.763 396.624C295.845 400.477 302.211 406.918 305.861 415.948C308.278 421.927 308.973 428.035 307.945 434.271C307.039 440.458 304.701 446.088 300.931 451.161C297.234 456.063 292.335 459.747 286.234 462.214Z" fill="#333333"/>
<path d="M53.5795 366.398L76.0538 317.305L225.093 385.534L202.619 434.627L53.5795 366.398Z" fill="#50C878"/>
<path d="M329.148 387.574L279.819 365.579L408.738 76.4493L458.066 98.4439L329.148 387.574Z" fill="#50C878"/>
</svg>
